<svg width="512" height="512" viewBox="0 0 512 512" fill="none" xmlns="http://www.w3.org/2000/svg">
<rect width="512" height="512" rx="83" fill="black"/>
<path d="M385.174 125.708C397.957 137.246 404.973 152.473 406.084 169.572C406.933 187.865 401.519 205.352 389.553 219.368C383.498 225.827 376.198 229.999 368.497 234.172C370.274 235.948 372.112 236.789 374.365 237.851C380.512 240.753 385.781 243.909 390.828 248.527C391.371 248.998 391.915 249.469 392.476 249.954C402.708 259.365 409.142 273.187 410.157 286.99C410.993 308.643 407.451 327.106 392.423 343.43C392.002 343.924 391.582 344.417 391.148 344.926C378.481 358.921 356.465 366.326 338.192 368.153C310.904 369.314 287.975 365.611 262.429 355.393C262.429 338.286 262.429 321.18 262.429 303.555C267.166 306.318 267.166 306.318 271.999 309.137C285.195 316.387 297.546 320.436 312.722 320.502C313.64 320.518 314.559 320.535 315.505 320.552C325.962 320.599 336.281 318.816 344.472 311.854C350.615 305.343 352.059 296.56 351.971 287.938C351.426 281.219 348.642 274.782 343.775 270.06C331.658 261.327 317.922 260.927 303.55 260.739C298.665 260.656 293.78 260.574 288.747 260.489C288.747 244.699 288.747 228.908 288.747 212.639C302.853 212.39 302.853 212.39 307.235 212.33C319.285 212.098 332.415 210.866 341.382 201.823C346.539 195.203 347.872 186.511 346.965 178.346C345.86 172.055 343.309 167.007 338.423 162.823C327.677 155.364 313.392 155.275 300.921 157.368C297.592 158.039 294.366 158.952 291.139 160.003C290.153 160.323 289.167 160.643 288.152 160.972C280.193 163.878 273.228 168.17 266.13 172.741C264.821 173.561 264.821 173.561 263.226 174.359C263.226 157.252 263.226 140.146 263.226 122.521C276.255 116.006 276.255 116.006 282.715 113.947C283.43 113.715 284.145 113.483 284.881 113.244C290.897 111.339 296.86 109.935 303.102 108.963C304.039 108.801 304.977 108.638 305.943 108.471C332.808 104.385 363.866 107.401 385.174 125.708Z" fill="white"/>
<path d="M186.666 109.76C198.245 109.76 209.825 109.76 221.756 109.76C221.756 183.45 221.756 257.14 221.756 333.063C219.192 332.037 216.767 331.018 214.298 329.82C206.072 325.904 197.806 322.483 189.158 319.605C187.881 319.178 187.881 319.178 186.579 318.743C179.739 316.524 172.949 314.88 165.93 313.125C165.93 266.806 165.93 220.486 165.93 172.764C163.299 173.553 160.667 174.343 157.955 175.156C149.137 177.063 140.304 176.941 131.338 176.851C126.7 176.818 122.061 176.785 117.282 176.751C117.282 163.329 117.282 149.907 117.282 136.078C122.283 135.815 127.283 135.552 132.435 135.281C135.172 134.923 137.736 134.562 140.41 133.985C141.385 133.78 141.385 133.78 142.379 133.571C159.485 129.748 174.226 122.2 186.666 109.76Z" fill="white"/>
<path d="M155.563 353.798C156.849 354.122 158.136 354.446 159.423 354.77C169.951 357.516 179.907 361.384 189.856 365.761C190.451 366.022 191.047 366.283 191.661 366.551C199.248 369.911 206.515 373.784 213.78 377.784C245.237 395.515 245.237 395.515 279.946 404.122C280.99 404.227 280.99 404.227 282.055 404.335C283.753 404.506 285.452 404.672 287.152 404.838C287.17 412.103 287.184 419.368 287.193 426.633C287.197 430.006 287.203 433.379 287.212 436.753C287.22 440.005 287.225 443.258 287.227 446.51C287.229 447.754 287.232 448.997 287.236 450.241C287.242 451.977 287.242 453.713 287.242 455.449C287.244 456.439 287.246 457.429 287.247 458.449C287.152 460.664 287.152 460.664 286.354 461.461C251.58 468.121 218.402 450.546 189.649 433.263C183.913 429.828 178.111 426.506 172.31 423.181C171.42 422.67 171.42 422.67 170.512 422.148C156.248 413.98 141.908 406.976 126.055 402.446C125.247 402.214 125.247 402.214 124.423 401.978C106.929 397.239 86.1251 398.372 70.2108 407.343C69.707 407.635 69.2033 407.927 68.6843 408.228C66.2419 409.623 66.2419 409.623 64.6469 409.623C64.4272 406.051 64.2696 402.482 64.165 398.905C64.1213 397.693 64.0618 396.482 63.9851 395.272C63.6027 389.076 63.4168 384.028 67.6345 379.128C69.4754 377.225 71.4209 375.471 73.4195 373.736C74.7176 372.475 76.0139 371.213 77.3073 369.947C85.3121 362.975 94.661 358.322 104.522 354.595C105.43 354.247 106.338 353.898 107.273 353.539C121.727 349.008 141.099 349.816 155.563 353.798Z" fill="url(#paint0_linear_1_88)"/>
<defs>
<linearGradient id="paint0_linear_1_88" x1="287.488" y1="462.539" x2="64.1853" y2="378.801" gradientUnits="userSpaceOnUse">
<stop stop-color="white"/>
<stop offset="1"/>
</linearGradient>
</defs>
</svg>
